<svg width="21" height="19" viewBox="0 0 21 19" fill="none" xmlns="http://www.w3.org/2000/svg">
<path d="M10.5 0C12.3984 0 14.1543 0.361899 15.7676 1.0857C17.3809 1.80949 18.6562 2.7937 19.5938 4.03833C20.5312 5.28295 21 6.64055 21 8.11113C21 9.5817 20.5312 10.9412 19.5938 12.1897C18.6562 13.4381 17.3828 14.4242 15.7734 15.148C14.1641 15.8718 12.4062 16.2337 10.5 16.2337C9.89844 16.2337 9.27734 16.1916 8.63672 16.1074C5.85547 17.9992 4.375 18.9566 4.19531 18.9796C4.10938 19.0102 4.02734 19.0064 3.94922 18.9681C3.91797 18.9451 3.89453 18.9145 3.87891 18.8762C3.86328 18.8379 3.85547 18.8034 3.85547 18.7728V18.7268C3.90234 18.4281 4.25781 17.1835 4.92188 14.9929C3.41406 14.2577 2.2168 13.283 1.33008 12.069C0.443359 10.855 0 9.53574 0 8.11113C0 6.64055 0.46875 5.28295 1.40625 4.03833C2.34375 2.7937 3.61914 1.80949 5.23242 1.0857C6.8457 0.361899 8.60156 0 10.5 0Z" fill="white"/>
</svg>
